<svg width="15" height="15" fill="none" xmlns="http://www.w3.org/2000/svg"><path d="M12.67 2.462h-1.706a.44.44 0 0 0-.438-.411h-.022v-.942C10.504.497 10 0 9.384 0H5.616C5 0 4.496.497 4.496 1.109v.942h-.023a.44.44 0 0 0-.438.411H2.33A2.31 2.31 0 0 0 .023 4.77v8.347C.023 14.155.868 15 1.907 15h11.186a1.886 1.886 0 0 0 1.884-1.884V4.769a2.31 2.31 0 0 0-2.307-2.307Zm-4.896.88c.392.077.733.3.963.628a1.535 1.535 0 0 1 .099 1.608L7.6 5.72a.44.44 0 0 0-.312.188L5.48 8.538a.44.44 0 0 0 .113.61l1.804 1.241a.438.438 0 0 0 .611-.113l1.81-2.63a.44.44 0 0 0 .063-.358L9.568 6.07c.142-.245.239-.51.289-.793a2.407 2.407 0 0 0-.495-1.937h1.587v10.78H4.051V3.341h3.723Zm1.206 3.97L7.533 9.416l-1.08-.742L7.9 6.57l.863-.099.217.842ZM5.375 1.109c0-.131.104-.23.241-.23h3.768c.137 0 .24.099.24.23v.942h-.022a.44.44 0 0 0-.438.411H5.836a.44.44 0 0 0-.438-.411h-.023v-.942ZM.902 13.115V4.77c0-.787.64-1.428 1.428-1.428h.842v10.78H1.907a1.007 1.007 0 0 1-1.005-1.005Zm13.196 0c0 .555-.45 1.006-1.005 1.006h-1.265V3.341h.842c.788 0 1.428.64 1.428 1.428v8.347Z" fill="url(#a)"/><defs><linearGradient id="a" x1="7.5" y1="17.148" x2="2.089" y2="-1.347" gradientUnits="userSpaceOnUse"><stop stop-color="#F85D2F"/><stop offset="1" stop-color="#F69311"/></linearGradient></defs></svg>