<svg width="20" height="20" fill="none" xmlns="http://www.w3.org/2000/svg"><path d="M15.078 8.984a.781.781 0 1 0 0-1.562.781.781 0 0 0 0 1.562Z" fill="url(#a)"/><path d="M16.875 1.563h-1.016V.78a.781.781 0 0 0-1.562 0v.781h-3.555v-.78a.781.781 0 0 0-1.562 0v.78H5.664v-.78a.781.781 0 1 0-1.562 0v.78h-.977A3.129 3.129 0 0 0 0 4.688v12.188A3.129 3.129 0 0 0 3.125 20h5.977a.781.781 0 1 0 0-1.563H3.125c-.862 0-1.563-.7-1.563-1.562V4.687c0-.861.701-1.562 1.563-1.562h.977v.781a.781.781 0 1 0 1.562 0v-.781H9.18v.781a.781.781 0 1 0 1.562 0v-.781h3.555v.781a.781.781 0 1 0 1.562 0v-.781h1.016c.862 0 1.563.7 1.563 1.563V9.14a.781.781 0 0 0 1.562 0V4.687a3.129 3.129 0 0 0-3.125-3.125Z" fill="url(#b)"/><path d="M15.273 10.547a4.732 4.732 0 0 0-4.726 4.726A4.732 4.732 0 0 0 15.273 20 4.732 4.732 0 0 0 20 15.273a4.732 4.732 0 0 0-4.727-4.726Zm0 7.89a3.168 3.168 0 0 1-3.164-3.164 3.168 3.168 0 0 1 3.164-3.164 3.168 3.168 0 0 1 3.165 3.164 3.168 3.168 0 0 1-3.165 3.165Z" fill="url(#c)"/><path d="M16.406 14.492h-.351v-.82a.781.781 0 0 0-1.563 0v1.601c0 .432.35.782.781.782h1.133a.781.781 0 0 0 0-1.563Z" fill="url(#d)"/><path d="M11.68 8.984a.781.781 0 1 0 0-1.562.781.781 0 0 0 0 1.562Z" fill="url(#e)"/><path d="M8.281 12.383a.781.781 0 1 0 0-1.563.781.781 0 0 0 0 1.563Z" fill="url(#f)"/><path d="M4.883 8.984a.781.781 0 1 0 0-1.562.781.781 0 0 0 0 1.562Z" fill="url(#g)"/><path d="M4.883 12.383a.781.781 0 1 0 0-1.563.781.781 0 0 0 0 1.563Z" fill="url(#h)"/><path d="M4.883 15.781a.781.781 0 1 0 0-1.562.781.781 0 0 0 0 1.562Z" fill="url(#i)"/><path d="M8.281 15.781a.781.781 0 1 0 0-1.562.781.781 0 0 0 0 1.562Z" fill="url(#j)"/><path d="M8.281 8.984a.781.781 0 1 0 0-1.562.781.781 0 0 0 0 1.562Z" fill="url(#k)"/><defs><linearGradient id="a" x1="15.078" y1="9.208" x2="14.516" y2="7.281" gradientUnits="userSpaceOnUse"><stop stop-color="#F85D2F"/><stop offset="1" stop-color="#F69311"/></linearGradient><linearGradient id="b" x1="10" y1="22.865" x2="2.804" y2="-1.807" gradientUnits="userSpaceOnUse"><stop stop-color="#F85D2F"/><stop offset="1" stop-color="#F69311"/></linearGradient><linearGradient id="c" x1="15.273" y1="21.354" x2="11.872" y2="9.693" gradientUnits="userSpaceOnUse"><stop stop-color="#F85D2F"/><stop offset="1" stop-color="#F69311"/></linearGradient><linearGradient id="d" x1="15.84" y1="16.508" x2="14.542" y2="12.717" gradientUnits="userSpaceOnUse"><stop stop-color="#F85D2F"/><stop offset="1" stop-color="#F69311"/></linearGradient><linearGradient id="e" x1="11.68" y1="9.208" x2="11.117" y2="7.281" gradientUnits="userSpaceOnUse"><stop stop-color="#F85D2F"/><stop offset="1" stop-color="#F69311"/></linearGradient><linearGradient id="f" x1="8.281" y1="12.607" x2="7.719" y2="10.679" gradientUnits="userSpaceOnUse"><stop stop-color="#F85D2F"/><stop offset="1" stop-color="#F69311"/></linearGradient><linearGradient id="g" x1="4.883" y1="9.208" x2="4.321" y2="7.281" gradientUnits="userSpaceOnUse"><stop stop-color="#F85D2F"/><stop offset="1" stop-color="#F69311"/></linearGradient><linearGradient id="h" x1="4.883" y1="12.607" x2="4.321" y2="10.679" gradientUnits="userSpaceOnUse"><stop stop-color="#F85D2F"/><stop offset="1" stop-color="#F69311"/></linearGradient><linearGradient id="i" x1="4.883" y1="16.005" x2="4.321" y2="14.078" gradientUnits="userSpaceOnUse"><stop stop-color="#F85D2F"/><stop offset="1" stop-color="#F69311"/></linearGradient><linearGradient id="j" x1="8.281" y1="16.005" x2="7.719" y2="14.078" gradientUnits="userSpaceOnUse"><stop stop-color="#F85D2F"/><stop offset="1" stop-color="#F69311"/></linearGradient><linearGradient id="k" x1="8.281" y1="9.208" x2="7.719" y2="7.281" gradientUnits="userSpaceOnUse"><stop stop-color="#F85D2F"/><stop offset="1" stop-color="#F69311"/></linearGradient></defs></svg>