<svg width="15" height="15" fill="none" xmlns="http://www.w3.org/2000/svg"><path d="M7.5 11.821a.732.732 0 1 0 0-1.465.732.732 0 0 0 0 1.465Z" fill="url(#a)"/><path d="M7.5 0A7.496 7.496 0 0 0 0 7.5C0 11.645 3.354 15 7.5 15c4.145 0 7.5-3.354 7.5-7.5C15 3.355 11.646 0 7.5 0Zm0 13.828A6.325 6.325 0 0 1 1.172 7.5 6.325 6.325 0 0 1 7.5 1.172 6.325 6.325 0 0 1 13.828 7.5 6.325 6.325 0 0 1 7.5 13.828Z" fill="url(#b)"/><path d="M7.5 3.765a2.346 2.346 0 0 0-2.344 2.343.586.586 0 1 0 1.172 0 1.173 1.173 0 0 1 2.344 0c0 .647-.526 1.172-1.172 1.172a.586.586 0 0 0-.586.586v1.465a.586.586 0 1 0 1.172 0v-.953a2.348 2.348 0 0 0 1.758-2.27A2.346 2.346 0 0 0 7.5 3.765Z" fill="url(#c)"/><defs><linearGradient id="a" x1="7.5" y1="10.356" x2="7.5" y2="11.821" gradientUnits="userSpaceOnUse"><stop stop-color="#5380E9"/><stop offset="1" stop-color="#245EE0"/></linearGradient><linearGradient id="b" x1="7.5" y1="0" x2="7.5" y2="15" gradientUnits="userSpaceOnUse"><stop stop-color="#5380E9"/><stop offset="1" stop-color="#245EE0"/></linearGradient><linearGradient id="c" x1="7.5" y1="3.765" x2="7.5" y2="9.917" gradientUnits="userSpaceOnUse"><stop stop-color="#5380E9"/><stop offset="1" stop-color="#245EE0"/></linearGradient></defs></svg>