<svg width="15" height="15" fill="none" xmlns="http://www.w3.org/2000/svg"><path d="M1.703 6.27a1.2 1.2 0 0 0 1.105-.735A5.094 5.094 0 0 1 7.5 2.407c1.164 0 2.23.399 3.086 1.06l-.67.104a.523.523 0 0 0-.135.994l3.686 1.658a.524.524 0 0 0 .738-.474l.02-4.062a.523.523 0 0 0-.959-.293l-.508.764A7.474 7.474 0 0 0 7.5 0 7.508 7.508 0 0 0 .59 4.589a1.209 1.209 0 0 0 1.113 1.68Z" fill="url(#a)"/><path d="M14.304 9.272a1.209 1.209 0 0 0-1.007-.541c-.482 0-.918.29-1.104.734A5.094 5.094 0 0 1 7.5 12.593a5.024 5.024 0 0 1-3.086-1.06l.67-.104a.523.523 0 0 0 .135-.994L1.533 8.777a.524.524 0 0 0-.738.474l-.02 4.062a.523.523 0 0 0 .959.293l.508-.764A7.473 7.473 0 0 0 7.5 15a7.508 7.508 0 0 0 6.91-4.589 1.21 1.21 0 0 0-.106-1.139Z" fill="url(#b)"/><defs><linearGradient id="a" x1="7.359" y1="7.167" x2="6.261" y2="-1.078" gradientUnits="userSpaceOnUse"><stop stop-color="#F85D2F"/><stop offset="1" stop-color="#F69311"/></linearGradient><linearGradient id="b" x1="7.641" y1="15.898" x2="6.542" y2="7.652" gradientUnits="userSpaceOnUse"><stop stop-color="#F85D2F"/><stop offset="1" stop-color="#F69311"/></linearGradient></defs></svg>