<svg width="40" height="40" fill="none" xmlns="http://www.w3.org/2000/svg"><path d="M20 0C8.954 0 0 8.957 0 20.005 0 31.048 8.95 40 19.99 40h.02C31.05 40 40 31.048 40 20.005 40 8.957 31.046 0 20 0Z" fill="#65ABD3"/><path d="M28.363 11.811 9.367 19.006c-1.039.3-1.006 1.327-.237 1.573l4.76 1.486 1.82 5.585c.222.612.403.842.78.847.398.005.55-.14.963-.505.483-.453 1.219-1.168 2.382-2.299l4.95 3.66c.912.502 1.57.241 1.797-.847l3.104-15.358c.332-1.334-.451-1.732-1.323-1.337Zm-13.727 9.913 10.821-6.791c.533-.358.7.041.46.317l-8.98 8.08-.462 4.034-1.839-5.64Z" fill="#fff"/></svg>