<svg width="40" height="40" fill="none" xmlns="http://www.w3.org/2000/svg"><path d="M20 0C8.954 0 0 8.957 0 20.005 0 31.048 8.95 40 19.99 40h.02C31.05 40 40 31.048 40 20.005 40 8.957 31.046 0 20 0Z" fill="#68A84C"/><path fill-rule="evenodd" clip-rule="evenodd" d="M20.184 9.76c-5.508 0-9.973 4.466-9.973 9.976 0 1.885.523 3.648 1.431 5.152l-1.8 5.352 5.522-1.768a9.933 9.933 0 0 0 4.82 1.24c5.509 0 9.974-4.466 9.974-9.976 0-5.51-4.465-9.976-9.974-9.976Zm0 18.281a8.256 8.256 0 0 1-4.568-1.373l-3.19 1.022 1.037-3.084a8.262 8.262 0 0 1-1.581-4.87c0-4.58 3.724-8.305 8.302-8.305 4.579 0 8.303 3.726 8.303 8.305 0 4.58-3.724 8.305-8.303 8.305Zm4.677-6.038c-.25-.137-1.479-.8-1.709-.893-.23-.094-.398-.143-.578.106-.179.248-.688.803-.843.968-.155.164-.304.18-.554.042-.25-.136-1.06-.436-2-1.34-.732-.703-1.211-1.556-1.35-1.816-.14-.261-.001-.394.13-.516.12-.11.267-.288.4-.432.132-.143.179-.248.27-.415.091-.166.055-.317-.004-.447-.06-.129-.521-1.401-.715-1.92-.193-.517-.408-.44-.556-.446-.149-.005-.318-.033-.488-.039a.935.935 0 0 0-.69.293c-.243.246-.924.837-.97 2.09-.048 1.253.819 2.498.94 2.673.12.175 1.655 2.89 4.205 4.008 2.55 1.116 2.563.776 3.03.75.47-.024 1.53-.56 1.765-1.145.234-.587.253-1.097.194-1.205-.06-.109-.228-.18-.477-.316Z" fill="#fff"/></svg>